# AST/ASF file generated using VICON BodyLanguage
# -----------------------------------------------
:version 1.10
:name VICON
:units
  mass 1.0
  length 0.45
  angle deg
:documentation
   .ast/.asf automatically generated from VICON data using
   VICON BodyBuilder and BodyLanguage model FoxedUp or BRILLIANT.MOD
:root
   order TX TY TZ RX RY RZ
   axis XYZ
   position 0 0 0  
   orientation 0 0 0 
:bonedata
  begin
     id 1 
     name lhipjoint
     direction 0.646657 -0.683706 0.338203 
     length 2.4948 
     axis 0 0 0  XYZ
  end
  begin
     id 2 
     name lfemur
     direction 0.34202 -0.939693 0  
     length 6.79491  
     axis 0 0 20  XYZ
    dof rx ry rz
    limits (-160.0 20.0)
           (-70.0 70.0)
           (-60.0 70.0)
  end
  begin
     id 3 
     name ltibia
     direction 0.34202 -0.939693 0   
     length 7.56807   
     axis 0 0 20   XYZ
    dof rx
    limits (-10.0 170.0)
  end
  begin
     id 4 
     name lfoot
     direction 0.0679796 -0.186772 0.980048   
     length 2.53018   
     axis -90 7.62852e-016 20   XYZ
    dof rx rz
    limits (-45.0 90.0)
           (-70.0 20.0)
  end
  begin
     id 5 
     name ltoes
     direction 1.53625e-011 -4.21881e-011 1   
     length 1.26912   
     axis -90 7.62852e-016 20   XYZ
    dof rx
    limits (-90.0 20.0)
  end
  begin
     id 6 
     name rhipjoint
     direction -0.618868 -0.704065 0.348274   
     length 2.42265  
     axis 0 0 0  XYZ 
  end
  begin
     id 7 
     name rfemur
     direction -0.34202 -0.939693 0   
     length 6.73814   
     axis 0 0 -20   XYZ
    dof rx ry rz
    limits (-160.0 20.0)
           (-70.0 70.0)
           (-70.0 60.0)
  end
  begin
     id 8 
     name rtibia
     direction -0.34202 -0.939693 0   
     length 7.66799   
     axis 0 0 -20   XYZ
    dof rx
    limits (-10.0 170.0)
 end
 begin
     id 9 
     name rfoot
     direction -0.0727352 -0.199838 0.977125   
     length 2.57224  
     axis -90 -7.62852e-016 -20   XYZ
    dof rx rz
    limits (-45.0 90.0)
           (-20.0 70.0)
  end
  begin
     id 10 
     name rtoes
     direction -1.53501e-011 -4.21858e-011 1   
     length 1.28858   
     axis -90 -7.62852e-016 -20   XYZ
    dof rx
    limits (-90.0 20.0)
  end
  begin
     id 11 
     name lowerback
     direction -0.0172471 0.995767 -0.0902851   
     length 2.20206   
     axis 0 0 0   XYZ
    dof rx ry rz
    limits (-20.0 45.0)
           (-30.0 30.0)
           (-30.0 30.0)
  end
  begin
     id 12 
     name upperback
     direction -0.000110737 0.999714 0.0239043   
     length 2.19523   
     axis 0 0 0   XYZ
    dof rx ry rz
    limits (-20.0 45.0)
           (-30.0 30.0)
           (-30.0 30.0)
  end
  begin
     id 13 
     name thorax
     direction 0.00704869 0.997783 0.0661741   
     length 2.21977   
     axis 0 0 0   XYZ
    dof rx ry rz
    limits (-20.0 45.0)
           (-30.0 30.0)
           (-30.0 30.0)
  end
  begin
     id 14 
     name lowerneck
     direction -0.00407501 0.995527 0.0943846   
     length 1.83142   
     axis 0 0 0   XYZ
    dof rx ry rz
    limits (-20.0 45.0)
           (-30.0 30.0)
           (-30.0 30.0)
  end
  begin
     id 15 
     name upperneck
     direction 0.0640586 0.986486 -0.150807   
     length 1.84616   
     axis 0 0 0   XYZ
    dof rx ry rz
    limits (-20.0 45.0)
           (-30.0 30.0)
           (-30.0 30.0)
  end
  begin
     id 16
     name head
     direction 0.0188017 0.99791 -0.0618239  
     length 1.85932  
     axis 0 0 0   XYZ
    dof rx ry rz
    limits (-20.0 45.0)
           (-30.0 30.0)
           (-30.0 30.0)
  end
  begin
     id 17 
     name lclavicle
     direction 0.976074 0.206905 0.066852  
     length 3.81043  
     axis 0 0 0   XYZ
    dof ry rz
    limits (-20.0 10.0)
           (0.0 20.0)
  end
  begin
     id 18 
     name lhumerus
     direction 1 -4.48971e-011 1.86916e-027   
     length 5.37587   
     axis 180 -30 -90   XYZ
    dof rx ry rz
    limits (-60.0 90.0)
           (-90.0 90.0)
           (-90.0 90.0)
  end
  begin
     id 19
     name lradius
     direction 1 -4.48968e-011 1.69187e-027   
     length 3.35977   
     axis 180 -30 -90   XYZ
    dof rx
    limits (-10.0 170.0)
  end
  begin
     id 20
     name lwrist
     direction 1 -4.48968e-011 5.8978e-027   
     length 1.67988   
     axis -3.27506e-015 90 90   XYZ
    dof ry
    limits (-180.0 0.0)
 end
  begin
     id 21 
     name lhand
     direction 1 -4.49028e-011 1.18071e-026   
     length 0.561859   
     axis -7.52654e-015 90 90   XYZ
    dof rx rz
    limits (-90.0 90.0)
           (-45.0 45.0)
  end
  begin
     id 22 
     name lfingers
     direction 1 -4.48927e-011 2.35758e-026   
     length 0.452985   
     axis -1.50534e-014 90 90   XYZ
    dof rx
    limits (0.0 90.0)
  end
  begin
     id 23
     name lthumb
     direction 0.707107 -6.34898e-011 0.707107   
     length 0.650399   
     axis -90 45 5.69224e-014   XYZ
    dof rx rz
    limits (-45.0 45.0)
           (-45.0 45.0)
  end
  begin
     id 24 
     name rclavicle
     direction -0.988403 0.151789 0.00439714   
     length 3.6942  
     axis 0 0 0   XYZ 
    dof ry rz
    limits (-10.0 20.0)
           (-20.0 0.0)
  end
  begin
     id 25 
     name rhumerus
     direction -1 -4.48978e-011 1.62495e-027  
     length 5.22819   
     axis 180 30 90   XYZ
    dof rx ry rz
    limits (-90.0 60.0)
           (-90.0 90.0)
           (-90.0 90.0)
  end
  begin
     id 26 
     name rradius
     direction -1 -4.48961e-011 3.47796e-027   
     length 3.40764   
     axis 180 30 90   XYZ
    dof rx
    limits (-10.0 170.0)
  end
  begin
     id 27 
     name rwrist
     direction -1 -4.48949e-011 5.89602e-027   
     length 1.70382   
     axis -3.27506e-015 -90 -90   XYZ
    dof ry
    limits (-180.0 0.0)
  end
  begin
     id 28
     name rhand
     direction -1 -4.48977e-011 1.17973e-026   
     length 0.583255   
     axis -7.52654e-015 -90 -90   XYZ
    dof rx rz
    limits (-90.0 90.0)
           (-45.0 45.0)
  end
  begin
     id 29
     name rfingers
     direction -1 -4.49099e-011 2.36408e-026   
     length 0.470235   
     axis -1.50534e-014 -90 -90   XYZ
    dof rx
    limits (0.0 90.0)
  end
  begin
     id 30
     name rthumb
     direction -0.707107 -6.35011e-011 0.707107   
     length 0.675167   
     axis -90 -45 -5.69224e-014   XYZ
    dof rx rz
    limits (-45.0 45.0)
           (-45.0 45.0)
  end
:hierarchy
  begin
    root lhipjoint rhipjoint lowerback
    lhipjoint lfemur
    lfemur ltibia
    ltibia lfoot
    lfoot ltoes
    rhipjoint rfemur
    rfemur rtibia
    rtibia rfoot
    rfoot rtoes
    lowerback upperback
    upperback thorax
    thorax lowerneck lclavicle rclavicle
    lowerneck upperneck
    upperneck head
    lclavicle lhumerus
    lhumerus lradius
    lradius lwrist
    lwrist lhand lthumb
    lhand lfingers
    rclavicle rhumerus
    rhumerus rradius
    rradius rwrist
    rwrist rhand rthumb
    rhand rfingers
  end

#!OML:ASF G:\JayActor3\Patient Classification 1\Patient 1\Session 2\male.ASF
:FULLY-SPECIFIED
:DEGREES
735
root 13.2862 17.0488 -8.30394 0.663689 -72.5258 2.88727
lowerback 2.32918 -0.800677 1.59782
upperback 0.0665013 -1.01515 1.97417
thorax -1.22923 -0.517822 1.16168
lowerneck -17.7982 -3.54272 -3.30601
upperneck 7.4163 -5.39024 10.7016
head 5.54158 -1.98691 3.39283
rclavicle 6.50523e-014 1.59028e-015
rhumerus -44.9392 5.39445 -84.6094
rradius 44.808
rwrist -7.93959
rhand -22.4501 2.83452
rfingers 7.12502
rthumb 3.97416 -27.1082
lclavicle 6.50523e-014 1.59028e-015
lhumerus -63.9079 -21.4388 103.619
lradius 81.2461
lwrist 11.617
lhand -14.0442 16.4766
lfingers 7.12502
lthumb 12.0865 46.1076
rfemur -20.1881 -6.12792 22.56
rtibia 53.2912
rfoot -12.9362 -12.604
rtoes 1.87258
lfemur -17.0437 8.43066 -20.57
ltibia 30.4317
lfoot -13.3248 -6.62496
ltoes -12.6425
736
root 13.2174 17.0681 -8.27557 1.06096 -72.6596 2.41023
lowerback 2.19991 -0.782865 1.64565
upperback -0.0106784 -0.99193 2.02449
thorax -1.236 -0.506715 1.18448
lowerneck -17.7436 -3.52405 -3.3015
upperneck 7.45618 -5.35909 10.6278
head 5.54 -1.97673 3.37232
rclavicle -1.18774e-014 -7.95139e-015
rhumerus -45.0481 5.4211 -84.5581
rradius 44.9148
rwrist -8.00392
rhand -22.4571 2.81932
rfingers 7.12502
rthumb 3.96737 -27.1235
lclavicle -1.18774e-014 -7.95139e-015
lhumerus -64.6047 -21.6264 103.587
lradius 81.6918
lwrist 11.8974
lhand -14.1195 16.5047
lfingers 7.12502
lthumb 12.0139 46.1399
rfemur -19.9769 -6.32076 22.5734
rtibia 53.3348
rfoot -12.2242 -12.4158
rtoes 1.70344
lfemur -16.7867 8.28567 -20.6162
ltibia 29.6936
lfoot -13.3271 -6.33002
ltoes -12.6214
737
root 13.1482 17.0858 -8.24696 1.5148 -72.8083 1.88666
lowerback 2.05784 -0.760283 1.69717
upperback -0.0952606 -0.962649 2.07599
thorax -1.24328 -0.492659 1.20618
lowerneck -17.6931 -3.51237 -3.30756
upperneck 7.51889 -5.33716 10.557
head 5.54731 -1.97026 3.35352
rclavicle 9.59136e-015 -1.27222e-014
rhumerus -45.1665 5.43381 -84.5105
rradius 45.0104
rwrist -8.08152
rhand -22.474 2.81209
rfingers 7.12502
rthumb 3.95108 -27.131
lclavicle 9.59136e-015 -1.27222e-014
lhumerus -65.2916 -21.8424 103.56
lradius 82.1357
lwrist 12.1723
lhand -14.1744 16.5431
lfingers 7.12502
lthumb 11.9609 46.1814
rfemur -19.7765 -6.5063 22.5977
rtibia 53.3777
rfoot -11.5208 -12.2198
rtoes 1.55268
lfemur -16.5322 8.19001 -20.6443
ltibia 28.9986
lfoot -13.3486 -6.0118
ltoes -12.624
738
root 13.0789 17.1017 -8.21816 2.01149 -72.9736 1.33035
lowerback 1.90679 -0.733311 1.74882
upperback -0.18635 -0.927832 2.12554
thorax -1.25226 -0.475901 1.22567
lowerneck -17.6557 -3.5062 -3.31827
upperneck 7.61076 -5.3239 10.4858
head 5.56666 -1.96685 3.33444
rclavicle -3.91109e-014 1.43125e-014
rhumerus -45.2949 5.43519 -84.4722
rradius 45.1006
rwrist -8.16571
rhand -22.4994 2.8082
rfingers 7.12502
rthumb 3.9265 -27.1354
lclavicle -3.91109e-014 1.43125e-014
lhumerus -65.9671 -22.09 103.538
lradius 82.5768
lwrist 12.4126
lhand -14.2187 16.5919
lfingers 7.12502
lthumb 11.9183 46.2327
rfemur -19.5968 -6.68628 22.6253
rtibia 53.4359
rfoot -10.828 -12.0029
rtoes 1.47212
lfemur -16.2833 8.13149 -20.6558
ltibia 28.3632
lfoot -13.3498 -5.68637
ltoes -12.5844
739
root 13.0099 17.1156 -8.18923 2.52724 -73.155 0.766086
lowerback 1.7503 -0.702027 1.79496
upperback -0.281863 -0.887655 2.1702
thorax -1.26276 -0.456478 1.24314
lowerneck -17.6341 -3.5004 -3.32558
upperneck 7.72697 -5.31241 10.4048
head 5.59596 -1.96371 3.31145
rclavicle -3.47873e-016 -1.74931e-014
rhumerus -45.4278 5.42969 -84.4458
rradius 45.1851
rwrist -8.25412
rhand -22.5325 2.80564
rfingers 7.12502
rthumb 3.89452 -27.1385
lclavicle -3.47873e-016 -1.74931e-014
lhumerus -66.6294 -22.3696 103.519
lradius 83.0175
lwrist 12.5924
lhand -14.2494 16.6187
lfingers 7.12502
lthumb 11.8886 46.2612
rfemur -19.45 -6.86001 22.6464
rtibia 53.5264
rfoot -10.1412 -11.7656
rtoes 1.46276
lfemur -16.0416 8.08882 -20.6564
ltibia 27.7971
lfoot -13.3077 -5.36733
ltoes -12.4952
740
root 12.9416 17.1272 -8.16023 3.04491 -73.3527 0.202982
lowerback 1.5967 -0.667935 1.8324
upperback -0.375933 -0.844056 2.20949
thorax -1.27337 -0.435319 1.26002
lowerneck -17.6279 -3.49297 -3.32941
upperneck 7.85921 -5.29936 10.3145
head 5.63231 -1.95947 3.28503
rclavicle 1.47101e-014 6.36111e-015
rhumerus -45.562 5.4209 -84.4316
rradius 45.2691
rwrist -8.33968
rhand -22.5605 2.80405
rfingers 7.12502
rthumb 3.86752 -27.1406
lclavicle 1.47101e-014 6.36111e-015
lhumerus -67.274 -22.6781 103.504
lradius 83.464
lwrist 12.6909
lhand -14.2786 16.6206
lfingers 7.12502
lthumb 11.8605 46.2647
rfemur -19.3357 -7.02255 22.6563
rtibia 53.6624
rfoot -9.45593 -11.5095
rtoes 1.50621
lfemur -15.7965 8.04216 -20.6444
ltibia 27.3061
lfoot -13.2135 -5.07417
ltoes -12.3169
741
root 12.8741 17.1363 -8.13115 3.54076 -73.5675 -0.336105
lowerback 1.44832 -0.631612 1.85903
upperback -0.466001 -0.797776 2.2391
thorax -1.28281 -0.412743 1.27313
lowerneck -17.6291 -3.48058 -3.32804
upperneck 7.99101 -5.27948 10.2164
head 5.66886 -1.95223 3.2559
rclavicle 1.2921e-014 1.11319e-014
rhumerus -45.6927 5.41042 -84.4334
rradius 45.3493
rwrist -8.41611
rhand -22.5772 2.80902
rfingers 7.12502
rthumb 3.85144 -27.1359
lclavicle 1.2921e-014 1.11319e-014
lhumerus -67.9016 -23.0124 103.486
lradius 83.9272
lwrist 12.7058
lhand -14.298 16.5951
lfingers 7.12502
lthumb 11.8418 46.2403
rfemur -19.2594 -7.16853 22.6471
rtibia 53.8548
rfoot -8.7704 -11.2379
rtoes 1.60238
lfemur -15.5391 7.9667 -20.6236
ltibia 26.8875
lfoot -13.0691 -4.80511
ltoes -11.9648
742
root 12.8075 17.1427 -8.10207 4.00786 -73.8011 -0.848741
lowerback 1.30749 -0.595622 1.87137
upperback -0.548586 -0.752247 2.25932
thorax -1.28874 -0.390402 1.28478
lowerneck -17.6316 -3.46026 -3.32242
upperneck 8.11336 -5.24856 10.1154
head 5.70176 -1.94008 3.22632
rclavicle -8.65707e-014 7.95139e-016
rhumerus -45.8181 5.4057 -84.455
rradius 45.4296
rwrist -8.47873
rhand -22.5812 2.81061
rfingers 7.12502
rthumb 3.84753 -27.1344
lclavicle -8.65707e-014 7.95139e-016
lhumerus -68.5045 -23.358 103.457
lradius 84.4075
lwrist 12.6444
lhand -14.3108 16.5328
lfingers 7.12502
lthumb 11.8294 46.1787
rfemur -19.2201 -7.2894 22.6186
rtibia 54.1083
rfoot -8.08071 -10.9601
rtoes 1.74111
lfemur -15.2594 7.85809 -20.5929
ltibia 26.5345
lfoot -12.8881 -4.51724
ltoes -11.4789
743
root 12.7419 17.1462 -8.07293 4.43723 -74.0557 -1.32878
lowerback 1.17772 -0.559394 1.87045
upperback -0.622641 -0.706519 2.26942
thorax -1.29211 -0.367812 1.29364
lowerneck -17.6249 -3.43356 -3.31531
upperneck 8.21255 -5.20702 10.0118
head 5.72504 -1.92399 3.19679
rclavicle -1.2101e-014 -2.38542e-014
rhumerus -45.9377 5.41623 -84.4996
rradius 45.5082
rwrist -8.53404
rhand -22.5742 2.80998
rfingers 7.12502
rthumb 3.85432 -27.1349
lclavicle -1.2101e-014 -2.38542e-014
lhumerus -69.0804 -23.709 103.416
lradius 84.9088
lwrist 12.5333
lhand -14.3135 16.4456
lfingers 7.12502
lthumb 11.8268 46.0916
rfemur -19.2164 -7.38259 22.5699
rtibia 54.4251
rfoot -7.38928 -10.6865
rtoes 1.90657
lfemur -14.9444 7.71316 -20.5551
ltibia 26.2336
lfoot -12.6914 -4.15329
ltoes -10.8526
744
root 12.6771 17.1469 -8.04367 4.82631 -74.3349 -1.7766
lowerback 1.0598 -0.522696 1.85575
upperback -0.685869 -0.66026 2.26914
thorax -1.29099 -0.344773 1.29972
lowerneck -17.6026 -3.39928 -3.29968
upperneck 8.28154 -5.15394 9.90213
head 5.73511 -1.90387 3.16515
rclavicle 2.98922e-014 1.59028e-014
rhumerus -46.0494 5.44488 -84.5683
rradius 45.5875
rwrist -8.58382
rhand -22.5567 2.80626
rfingers 7.12502
rthumb 3.87121 -27.1383
lclavicle 2.98922e-014 1.59028e-014
lhumerus -69.6217 -24.0585 103.358
lradius 85.4316
lwrist 12.406
lhand -14.3067 16.3528
lfingers 7.12502
lthumb 11.8334 45.9985
rfemur -19.2431 -7.44664 22.5025
rtibia 54.8026
rfoot -6.70195 -10.4259
rtoes 2.11052
lfemur -14.5836 7.53595 -20.5105
ltibia 25.9724
lfoot -12.4917 -3.68681
ltoes -10.0651
745
root 12.613 17.1445 -8.01426 5.17202 -74.6394 -2.19102
lowerback 0.953576 -0.484676 1.82715
upperback -0.736093 -0.612341 2.25993
thorax -1.28309 -0.320697 1.30451
lowerneck -17.5669 -3.36084 -3.28444
upperneck 8.3175 -5.09215 9.79024
head 5.73199 -1.88109 3.13377
rclavicle 5.30258e-014 -1.51076e-014
rhumerus -46.1484 5.49267 -84.6595
rradius 45.6632
rwrist -8.62997
rhand -22.5369 2.80279
rfingers 7.12502
rthumb 3.89033 -27.1414
lclavicle 5.30258e-014 -1.51076e-014
lhumerus -70.1147 -24.4048 103.283
lradius 85.9663
lwrist 12.2991
lhand -14.2932 16.2628
lfingers 7.12502
lthumb 11.8463 45.9078
rfemur -19.2952 -7.48719 22.4184
rtibia 55.2377
rfoot -6.02411 -10.1887
rtoes 2.31748
lfemur -14.1725 7.34139 -20.4638
ltibia 25.7364
lfoot -12.3041 -3.13117
ltoes -9.20838
746
root 12.5492 17.1388 -7.98464 5.47267 -74.9686 -2.57081
lowerback 0.858478 -0.447537 1.78379
upperback -0.775794 -0.565603 2.24144
thorax -1.27059 -0.297003 1.3082
lowerneck -17.5093 -3.31659 -3.26466
upperneck 8.32139 -5.02084 9.67561
head 5.71441 -1.85528 3.10181
rclavicle -2.50966e-015 5.56597e-015
rhumerus -46.2373 5.56575 -84.776
rradius 45.734
rwrist -8.67489
rhand -22.5156 2.80299
rfingers 7.12502
rthumb 3.91086 -27.1409
lclavicle -2.50966e-015 5.56597e-015
lhumerus -70.5597 -24.7412 103.189
lradius 86.5103
lwrist 12.2392
lhand -14.271 16.2057
lfingers 7.12502
lthumb 11.8678 45.8493
rfemur -19.3669 -7.51318 22.3185
rtibia 55.7252
rfoot -5.36598 -9.97658
rtoes 2.55615
lfemur -13.7103 7.13455 -20.4188
ltibia 25.514
lfoot -12.1349 -2.53886
ltoes -8.25516
747
root 12.4858 17.1302 -7.95483 5.72839 -75.3159 -2.9146
lowerback 0.772644 -0.412989 1.7241
upperback -0.806059 -0.522339 2.21593
thorax -1.25354 -0.274825 1.31403
lowerneck -17.4293 -3.26765 -3.24092
upperneck 8.29463 -4.94172 9.55904
head 5.68297 -1.82712 3.06944
rclavicle 3.47376e-014 -1.03368e-014
rhumerus -46.3143 5.6595 -84.9113
rradius 45.7991
rwrist -8.71563
rhand -22.492 2.80325
rfingers 7.12502
rthumb 3.93369 -27.1402
lclavicle 3.47376e-014 -1.03368e-014
lhumerus -70.9449 -25.0671 103.079
lradius 87.0468
lwrist 12.2386
lhand -14.2414 16.1811
lfingers 7.12502
lthumb 11.8964 45.8232
rfemur -19.4554 -7.53525 22.2048
rtibia 56.2624
rfoot -4.73258 -9.79364
rtoes 2.83987
lfemur -13.2038 6.92445 -20.3798
ltibia 25.2943
lfoot -11.9993 -1.96915
ltoes -7.21453
748
root 12.4225 17.1187 -7.92484 5.94364 -75.6735 -3.2288
lowerback 0.700063 -0.383963 1.64842
upperback -0.830236 -0.486202 2.18574
thorax -1.23755 -0.256023 1.3243
lowerneck -17.3266 -3.21562 -3.21463
upperneck 8.24831 -4.85807 9.44387
head 5.64148 -1.79766 3.03763
rclavicle -3.23522e-014 1.90833e-014
rhumerus -46.3839 5.77229 -85.0621
rradius 45.8569
rwrist -8.74624
rhand -22.4641 2.81324
rfingers 7.12502
rthumb 3.96063 -27.1297
lclavicle -3.23522e-014 1.90833e-014
lhumerus -71.27 -25.3785 102.959
lradius 87.5665
lwrist 12.293
lhand -14.2041 16.1828
lfingers 7.12502
lthumb 11.9323 45.8227
rfemur -19.5559 -7.56182 22.0804
rtibia 56.8481
rfoot -4.12122 -9.6409
rtoes 3.16634
lfemur -12.6613 6.72918 -20.3487
ltibia 25.0733
lfoot -11.9152 -1.46165
ltoes -6.172
